<?xml version="1.0" encoding="utf-8"?>
<!-- Generator: Adobe Illustrator 26.0.3, SVG Export Plug-In . SVG Version: 6.00 Build 0)  -->
<svg version="1.0"
	 id="svg2" xmlns:cc="http://creativecommons.org/ns#" xmlns:dc="http://purl.org/dc/elements/1.1/" xmlns:inkscape="http://www.inkscape.org/namespaces/inkscape" xmlns:rdf="http://www.w3.org/1999/02/22-rdf-syntax-ns#" xmlns:sodipodi="http://sodipodi.sourceforge.net/DTD/sodipodi-0.dtd" xmlns:svg="http://www.w3.org/2000/svg"
	 xmlns="http://www.w3.org/2000/svg" xmlns:xlink="http://www.w3.org/1999/xlink" x="0px" y="0px" viewBox="0 0 1290.7 974.8"
	 style="enable-background:new 0 0 1290.7 974.8;" xml:space="preserve">
<g id="g139" transform="translate(-133.41894,-822.16314)">
	<g id="g1199" transform="matrix(17.544211,0,0,17.544211,-8113.062,-276.98168)">
		<path id="path1201" vector-effect="none" inkscape:connector-curvature="0" d="M534.1,78.8c-0.6-0.9-3.2-2.8-5.9-4.9
			c0.1,0.1,0.1,0.1,0.2,0.2c0,0,0,0,0,0c0.1,0.1,0.1,0.1,0.2,0.2c0,0,0,0,0,0c0.1,0.1,0.1,0.1,0.2,0.2c0,0,0,0,0,0
			c0.1,0.1,0.2,0.2,0.4,0.4c0,0,0,0,0,0c0.1,0.1,0.1,0.1,0.2,0.2c0,0,0,0,0,0c0.1,0.1,0.1,0.1,0.2,0.2c0,0,0,0,0,0
			c0.1,0.1,0.1,0.1,0.2,0.2c0.3,0.3,0.2,0.5,0,0.7c-0.2,0.2-6,5-6.2,5.1c-0.2,0.2-0.4,0.1-0.5,0c-0.8-0.7-1.7-1-2.9-0.7
			c-2,0.4-3.8,2.6-3.7,4.9l0,0c0.1,2.3,1.9,3.4,4,3c0,0,0.1,0,0.1,0c0-0.5,0.1-0.7,0.1-0.7c0.3-2,1.9-3.7,3.7-4
			c1-0.2,1.8-0.1,2.5,0.4c0,0,0.4,0.3,0.4,0.3c0.1,0.1,0.3,0.2,0.5,0l6.4-5.1c0.1-0.1,0.2-0.2,0.2-0.3
			C534.2,79,534.2,78.9,534.1,78.8"/>
	</g>
	<g id="g1205" transform="matrix(17.544211,0,0,17.544211,-8113.062,-276.98168)">
		<path id="path1207" vector-effect="none" inkscape:connector-curvature="0" d="M535.2,91.8l-4.6-3.7l0,0c0,0,0,0,0,0c0,0,0,0,0,0
			c0,0,0,0,0,0c0,0,0,0,0,0c0,0,0,0,0,0c0,0,0,0,0,0c0,0.1,0,0.2,0,0.3c0,0,0,0,0,0c0,0,0,0,0,0c0,0,0,0,0,0c0,0,0,0,0,0
			c0,0,0,0,0,0c0,0,0,0,0,0c0,0,0,0,0,0c0,0,0,0,0,0c0,0,0,0,0,0c0,0,0,0,0,0.1c-1.8,3.7-5.5,7.1-10.3,8.1c-1,0.2-1.8,0.3-2.6,0.3
			c-5.5,0-9.4-3.6-9.5-10.2l0-0.1c-0.1-3.3,0.7-6.2,2.2-8.6c0,0,0,0,0-0.1c-0.5-0.4-3.8-3-4-3.1c0.1,0.1,0.1,0.2,0.1,0.3v0.2v6.9v0
			c0,0.2-0.1,0.3-0.3,0.3l-7.2,1.2c0,0,0,0,0,0l0,0c-0.1,0-0.2,0.1-0.2,0.2l0,0v3h0c0,0.1,0.1,0.2,0.2,0.2v0c0,0,6.1-1,6.1-1
			c0.2,0,0.4,0.2,0.4,0.4v0v7v0c0,0.2-0.1,0.3-0.3,0.3l-6.2,1c0,0,0,0,0,0l0,0c-0.1,0-0.2,0.1-0.2,0.2v4.4v0c0,0.2-0.1,0.3-0.3,0.4
			c0,0-7.1,1.2-7.9,1.3c0,0,0,0,0,0c0,0,0,0,0,0c-0.2,0-0.4-0.2-0.4-0.4v0V80.9l-3.3-2.6c0,0,0,0,0,0c0.1,0.1,0.1,0.2,0.1,0.3v0.3
			v22.8v0c0,0.2-0.1,0.3-0.3,0.3l-8.1,1.3c0,0,0,0-0.1,0c-0.1,0-0.1,0-0.2-0.1l4.5,3.6c0.1,0.1,0.2,0.1,0.3,0.1c0,0,9.8-1.6,9.8-1.6
			c0.2,0,0.3-0.2,0.3-0.3v-1.4l1.7,1.3c0.1,0.1,0.2,0.1,0.2,0.1l8-1.3c0.2,0,0.3-0.2,0.3-0.3v-4.5c0-0.1,0.1-0.1,0.1-0.2l0,0
			c0,0,0,0,0,0l7.2-1.2c0.2,0,0.3-0.2,0.3-0.3v-1.8c2.8,2.7,6.8,4.5,6.8,4.5c2,0.9,4.4,1.2,7,0.7c4.8-1,8.5-4.4,10.3-8
			C535.2,92.3,535.4,91.9,535.2,91.8"/>
	</g>
</g>
</svg>
